<!DOCTYPE svg PUBLIC "-//W3C//DTD SVG 20010904//EN" "http://www.w3.org/TR/2001/REC-SVG-20010904/DTD/svg10.dtd">
<svg version="1.0" xmlns="http://www.w3.org/2000/svg" width="512px" height="512px" viewBox="0 0 5120 5120" preserveAspectRatio="xMidYMid meet">
<g id="layer101" fill="#555555" stroke="none">
 <path d="M359 5101 c-88 -28 -154 -69 -218 -135 -63 -66 -100 -130 -125 -217 -15 -49 -16 -261 -14 -2214 l3 -2160 37 -78 c66 -137 184 -239 327 -281 49 -14 265 -16 2191 -16 2359 0 2175 -5 2303 63 67 35 160 130 199 203 62 114 58 -35 58 2300 0 2098 0 2133 -20 2196 -48 158 -181 290 -339 338 -62 20 -104 20 -2205 19 -2023 0 -2144 -1 -2197 -18z"/>
 </g>
<g id="layer102" fill="#fdfdfd" stroke="none">
 <path d="M1625 2977 c-118 -39 -174 -131 -195 -321 -22 -191 17 -343 110 -436 62 -63 104 -80 197 -80 63 0 143 31 178 70 18 20 18 21 -10 50 -25 26 -31 28 -44 16 -34 -29 -82 -46 -133 -46 -127 0 -188 109 -188 334 0 245 58 344 193 333 32 -3 69 -12 82 -21 24 -16 25 -20 25 -141 l0 -125 -60 0 c-56 0 -60 -2 -60 -22 0 -13 -3 -33 -6 -45 -6 -23 -6 -23 110 -23 l116 0 0 201 0 200 -66 31 c-78 36 -182 47 -249 25z"/>
 <path d="M4540 2981 c-84 -27 -147 -89 -179 -175 -47 -127 -47 -355 1 -483 26 -71 95 -146 153 -169 70 -26 179 -17 241 21 53 33 106 109 125 178 35 131 30 340 -11 450 -25 67 -79 131 -134 159 -44 23 -153 33 -196 19z m140 -96 c73 -38 110 -142 110 -315 0 -237 -53 -340 -174 -340 -94 0 -143 57 -167 194 -13 78 -7 279 10 337 34 112 135 168 221 124z"/>
 <path d="M210 2967 c0 -7 47 -193 104 -413 l103 -399 69 -3 70 -3 103 403 c57 222 104 408 105 413 1 6 -22 11 -51 13 l-52 3 -10 -38 c-6 -21 -15 -60 -21 -88 -20 -93 -7 -85 -145 -85 l-125 0 -6 28 c-9 39 -24 101 -35 145 -10 36 -10 37 -59 37 -35 0 -50 -4 -50 -13z m376 -304 c-7 -24 -96 -404 -96 -411 0 -3 -2 -3 -4 -1 -4 3 -21 75 -91 372 l-13 57 105 0 c95 0 104 -2 99 -17z"/>
 <path d="M870 2564 l0 -416 138 4 c122 3 143 7 194 30 41 19 64 38 85 69 25 38 28 51 28 128 0 106 -20 152 -88 198 l-47 31 81 164 c114 229 110 208 40 208 l-58 0 -80 -172 -79 -173 -52 -3 -52 -3 0 175 0 176 -55 0 -55 0 0 -416z m267 -41 c65 -30 93 -139 55 -213 -23 -47 -72 -70 -149 -70 l-63 0 0 150 0 150 61 0 c36 0 75 -7 96 -17z"/>
 <path d="M2100 2564 l0 -416 138 4 c157 5 205 20 259 81 87 99 59 283 -54 349 -41 25 -43 18 52 208 40 80 76 155 80 168 6 22 5 23 -51 20 l-58 -3 -80 -172 -79 -173 -48 0 -49 0 -2 173 -3 172 -52 3 -53 3 0 -417z m253 -38 c55 -23 71 -50 75 -125 7 -116 -37 -161 -157 -161 l-61 0 0 150 0 150 55 0 c31 0 70 -6 88 -14z"/>
 <path d="M2700 2565 l0 -415 186 0 185 0 -3 43 -3 42 -127 3 -128 3 0 134 0 135 110 0 110 0 0 45 0 45 -110 0 -110 0 0 145 0 145 135 0 135 0 0 45 0 45 -190 0 -190 0 0 -415z"/>
 <path d="M3220 2565 l0 -416 72 3 72 3 117 325 c65 179 119 328 121 333 2 4 1 -144 0 -328 l-4 -335 51 0 51 0 0 415 0 416 -71 -3 -72 -3 -114 -315 c-62 -173 -117 -324 -121 -334 -5 -11 -8 131 -8 315 l1 334 -47 3 -48 3 0 -416z"/>
 <path d="M4000 2611 l0 -371 -95 0 -95 0 0 -45 0 -45 245 0 c267 0 251 -4 239 59 l-6 31 -89 0 -89 0 -2 368 -3 367 -52 3 -53 3 0 -370z"/>
 </g>

</svg>